<svg xmlns="http://www.w3.org/2000/svg" xmlns:xlink="http://www.w3.org/1999/xlink" width="40" zoomAndPan="magnify" viewBox="0 0 30 30.000001" height="40" preserveAspectRatio="xMidYMid meet" version="1.0"><defs><g/><clipPath id="1ebeb51a09"><path d="M 0.484375 0 L 29.515625 0 L 29.515625 29.03125 L 0.484375 29.03125 Z M 0.484375 0 " clip-rule="nonzero"/></clipPath></defs><g clip-path="url(#1ebeb51a09)"><path fill="#ffffff" d="M 0.484375 0 L 29.515625 0 L 29.515625 29.03125 L 0.484375 29.03125 Z M 0.484375 0 " fill-opacity="1" fill-rule="nonzero"/><path fill="#000000" d="M 0.484375 0 L 29.515625 0 L 29.515625 29.03125 L 0.484375 29.03125 Z M 0.484375 0 " fill-opacity="1" fill-rule="nonzero"/></g><g fill="#ffffff" fill-opacity="1"><g transform="translate(10.100806, 24.967787)"><g><path d="M 2.34375 -13.40625 L 2.34375 -16.25 C 2.363281 -18.25 2.832031 -19.847656 3.75 -21.046875 C 4.675781 -22.253906 5.960938 -22.859375 7.609375 -22.859375 C 8.296875 -22.859375 8.957031 -22.757812 9.59375 -22.5625 C 10.226562 -22.363281 10.6875 -22.15625 10.96875 -21.9375 L 11.421875 -21.65625 L 9.796875 -18.390625 C 9.378906 -18.628906 8.914062 -18.75 8.40625 -18.75 C 7.832031 -18.75 7.445312 -18.550781 7.25 -18.15625 C 7.0625 -17.769531 6.96875 -17.09375 6.96875 -16.125 L 6.96875 -13.40625 L 10.0625 -13.40625 L 10.0625 -9.875 L 6.96875 -9.875 L 6.96875 0 L 2.34375 0 L 2.34375 -9.875 L 0.421875 -9.875 L 0.421875 -13.40625 Z M 2.34375 -13.40625 "/></g></g></g></svg>